# xmcd
#
# Track frame offsets:
#	182
#	11450
#	23472
#	34787
#	45277
#	57327
#	66477
#	78797
#	92227
#	104740
#	115430
#	127527
#	139112
#	149385
#	162487
#	175367
#	185437
#	197130
#	207687
#	219275
#	230302
#	242365
#	251965
#	264265
#	275877
#	287957
#	298985
#	308992
#	320085
#	332330
#	344360
#
# Disc length: 4713 seconds
#
# Revision: 1
# Processed by: cddbd v1.4PL0 Copyright (c) Steve Scherf et al.
# Submitted via: audiograbber 1.80
#
DISCID=db12671f
DTITLE=bobby bare - vthe all-american boy disc 4
DYEAR=1900
DGENRE=
TTITLE0=the deepening snow 1965
TTITLE1=i'm a man of constant sorrow 1965
TTITLE2=she picked a perfect day 1965
TTITLE3=one day at a time 1965
TTITLE4=so soon 1965
TTITLE5=countin' the hours-countin' the days 1965
TTITLE6=don't think twice, it's all right 1965
TTITLE7=blowin' in the wind 1965
TTITLE8=delia's gone 1965
TTITLE9=lemon tree 1965
TTITLE10=it's alright 1965
TTITLE11=salt lake city 1965
TTITLE12=changing my mind 1965
TTITLE13=good old tennessee (german) 1965
TTITLE14=das haus auf der sierra (german) 1965
TTITLE15=wilder wolf und brauner bär (so ist das leben) (german) 1965
TTITLE16=molly brown (german) 1965
TTITLE17=a little bit later on down the line 1965
TTITLE18=got leavin' on hear mind 1965
TTITLE19=try to remember 1994
TTITLE20=all the good times are past and gone 1965
TTITLE21=memories 1965
TTITLE22=heaven help my soul 1965
TTITLE23=(for a whild) we helped each other out 1965
TTITLE24=in the same old way 1968
TTITLE25=talk me some sense (with recitation) 1994
TTITLE26=you can't stop the wild wind from blowing 1965
TTITLE27=it ain't me babe 1965
TTITLE28=the long black veil 1965
TTITLE29=passin' through 1965
TTITLE30=what color (is a man) 1965
EXTD=
EXTT0=
EXTT1=
EXTT2=
EXTT3=
EXTT4=
EXTT5=
EXTT6=
EXTT7=
EXTT8=
EXTT9=
EXTT10=
EXTT11=
EXTT12=
EXTT13=
EXTT14=
EXTT15=
EXTT16=
EXTT17=
EXTT18=
EXTT19=
EXTT20=
EXTT21=
EXTT22=
EXTT23=
EXTT24=
EXTT25=
EXTT26=
EXTT27=
EXTT28=
EXTT29=
EXTT30=
PLAYORDER=
